<?xml version="1.0" encoding="UTF-8" standalone="no"?>
<svg
   xmlns:dc="http://purl.org/dc/elements/1.1/"
   xmlns:cc="http://creativecommons.org/ns#"
   xmlns:rdf="http://www.w3.org/1999/02/22-rdf-syntax-ns#"
   xmlns:svg="http://www.w3.org/2000/svg"
   xmlns="http://www.w3.org/2000/svg"
   xmlns:sodipodi="http://sodipodi.sourceforge.net/DTD/sodipodi-0.dtd"
   xmlns:inkscape="http://www.inkscape.org/namespaces/inkscape"
   width="300"
   stroke-miterlimit="10"
   font-weight="normal"
   height="120"
   font-style="normal"
   font-size="12px"
   version="1.1"
   id="svg47"
   sodipodi:docname="oxygen_binding.svg"
   style="font-style:normal;font-weight:normal;font-size:12px;font-family:Dialog;color-interpolation:auto;fill:#000000;fill-opacity:1;stroke:#000000;stroke-width:1;stroke-linecap:square;stroke-linejoin:miter;stroke-miterlimit:10;stroke-dasharray:none;stroke-dashoffset:0;stroke-opacity:1;color-rendering:auto;image-rendering:auto;shape-rendering:auto;text-rendering:auto"
   inkscape:version="0.92.3 (2405546, 2018-03-11)">
  <metadata
     id="metadata51">
    <rdf:RDF>
      <cc:Work
         rdf:about="">
        <dc:format>image/svg+xml</dc:format>
        <dc:type
           rdf:resource="http://purl.org/dc/dcmitype/StillImage" />
        <dc:title></dc:title>
      </cc:Work>
    </rdf:RDF>
  </metadata>
  <sodipodi:namedview
     pagecolor="#ffffff"
     bordercolor="#666666"
     borderopacity="1"
     objecttolerance="10"
     gridtolerance="10"
     guidetolerance="10"
     inkscape:pageopacity="0"
     inkscape:pageshadow="2"
     inkscape:window-width="1360"
     inkscape:window-height="740"
     id="namedview49"
     showgrid="false"
     inkscape:zoom="2.0743802"
     inkscape:cx="102.46384"
     inkscape:cy="49.970193"
     inkscape:window-x="0"
     inkscape:window-y="0"
     inkscape:window-maximized="1"
     inkscape:current-layer="svg47" />
  <!--Generated by Marvin with Batik SVG Generator
MolSource:
<?xml version="1.0" encoding="UTF-8"?><cml xmlns="http://www.chemaxon.com" xmlns:xsi="http://www.w3.org/2001/XMLSchema-instance" xsi:schemaLocation="http://www.chemaxon.com/marvin/schema/mrvSchema_20_20_0.xsd" version="ChemAxon file format v20.20.0, generated by v22.11.0">
<MDocument atomSetRGB="1:#000000" atomSetFont="1:SansSerif-BOLD-14" bondSetRGB="1:#000000" bondSetLineThickness="1:0.13333333333333333"><MChemicalStruct><molecule molID="m1"><atomArray atomID="a1 a2 a3 a4 a5 a6 a7 a8" elementType="C C C O C C C O" mrvSetSeq="1 1 1 1 1 1 1 1" x2="-9.9722 -8.6385 -7.3049 -8.6385 -3.1667 -1.8330 -0.4993 -1.8330" y2="1.6389 2.4089 1.6389 3.9489 1.5000 2.2700 1.5000 3.8100"></atomArray><bondArray><bond id="b1" atomRefs2="a1 a2" order="1" mrvSetSeq="1"></bond><bond id="b2" atomRefs2="a2 a3" order="1" mrvSetSeq="1"></bond><bond id="b3" atomRefs2="a2 a4" order="2" mrvSetSeq="1"></bond><bond id="b4" atomRefs2="a5 a6" order="1" mrvSetSeq="1"></bond><bond id="b5" atomRefs2="a6 a7" order="1" mrvSetSeq="1"></bond><bond id="b6" atomRefs2="a6 a8" order="1" mrvSetSeq="1"></bond></bondArray></molecule></MChemicalStruct></MDocument>
</cml>
-->
  <defs
     id="genericDefs" />
  <g
     id="g45"
     transform="translate(28.482072,-5.673307)">
    <defs
       id="1911954389975-defs1">
      <clipPath
         clipPathUnits="userSpaceOnUse"
         id="1911954389337-clipPath1">
        <path
           d="M 0,0 H 242 V 90 H 0 Z"
           id="path3"
           inkscape:connector-curvature="0" />
      </clipPath>
      <clipPath
         clipPathUnits="userSpaceOnUse"
         id="1911954389467-clipPath1">
        <path
           d="m -37.2133,-10.7327 h 242 v 90 h -242 z"
           id="path6"
           inkscape:connector-curvature="0" />
      </clipPath>
      <clipPath
         clipPathUnits="userSpaceOnUse"
         id="1911954389897-clipPath1">
        <path
           d="m -191.1117,-13.8636 h 242 v 90 h -242 z"
           id="path9"
           inkscape:connector-curvature="0" />
      </clipPath>
    </defs>
    <g
       id="g15"
       style="text-rendering:geometricPrecision">
      <path
         d="m 13.4874,71.4996 v 0 L 43.5495,54.1435 c 0.7187,-0.415 1.6377,-0.1687 2.0527,0.55 0.4149,0.7188 0.1687,1.6378 -0.5501,2.0528 v 0 l -30.062,17.356 c -0.7187,0.415 -1.6378,0.1687 -2.0527,-0.55 -0.415,-0.7187 -0.1687,-1.6378 0.55,-2.0527 z"
         clip-path="url(#1911954389337-clipPath1)"
         id="path13"
         inkscape:connector-curvature="0"
         style="stroke:none" />
    </g>
    <g
       id="g19"
       style="text-rendering:geometricPrecision">
      <path
         d="m 45.0522,54.1435 v 0 L 75.112,71.4996 c 0.7187,0.415 0.965,1.334 0.55,2.0527 -0.415,0.7187 -1.334,0.965 -2.0527,0.55 v 0 L 43.5494,56.7462 c -0.7187,-0.415 -0.9649,-1.334 -0.5499,-2.0527 0.4149,-0.7187 1.334,-0.9649 2.0527,-0.55 z"
         clip-path="url(#1911954389337-clipPath1)"
         id="path17"
         inkscape:connector-curvature="0"
         style="stroke:none" />
    </g>
    <g
       id="g23"
       style="text-rendering:geometricPrecision">
      <path
         d="m 39.6675,57.2523 c 0,0.8299 0.6728,1.5027 1.5027,1.5027 0.8299,0 1.5027,-0.6728 1.5027,-1.5027 v -24.749 c 0,-0.83 -0.6728,-1.5027 -1.5027,-1.5027 -0.8299,0 -1.5027,0.6727 -1.5027,1.5027 z m 6.2612,1e-4 c 0,0.8299 0.6728,1.5027 1.5027,1.5027 0.8299,0 1.5027,-0.6728 1.5027,-1.5027 V 32.5033 c 0,-0.83 -0.6728,-1.5027 -1.5027,-1.5027 -0.8299,0 -1.5027,0.6727 -1.5027,1.5027 z"
         clip-path="url(#1911954389337-clipPath1)"
         id="path21"
         inkscape:connector-curvature="0"
         style="stroke:none" />
    </g>
    <g
       id="g27"
       style="text-rendering:geometricPrecision">
      <path
         d="m 166.8858,74.6304 v 0 l 30.062,-17.356 c 0.7188,-0.415 1.6378,-0.1687 2.0528,0.55 0.4149,0.7187 0.1687,1.6378 -0.5501,2.0527 v 0 l -30.062,17.3561 c -0.7188,0.4149 -1.6378,0.1687 -2.0528,-0.5501 -0.4149,-0.7187 -0.1686,-1.6377 0.5501,-2.0527 z"
         clip-path="url(#1911954389337-clipPath1)"
         id="path25"
         inkscape:connector-curvature="0"
         style="stroke:none" />
    </g>
    <g
       id="g31"
       style="text-rendering:geometricPrecision">
      <path
         d="m 198.4505,57.2744 v 0 l 30.0621,17.356 c 0.7187,0.415 0.965,1.334 0.55,2.0527 -0.4149,0.7188 -1.3339,0.965 -2.0527,0.5501 v 0 L 196.9478,59.8771 c -0.7187,-0.4149 -0.9649,-1.334 -0.55,-2.0527 0.415,-0.7187 1.334,-0.965 2.0527,-0.55 z"
         clip-path="url(#1911954389337-clipPath1)"
         id="path29"
         inkscape:connector-curvature="0"
         style="stroke:none" />
    </g>
    <g
       id="g35"
       style="text-rendering:geometricPrecision">
      <path
         d="m 196.1965,58.5757 v 0 -22.9416 c 0,-0.8299 0.6728,-1.5027 1.5027,-1.5027 0.8299,0 1.5027,0.6728 1.5027,1.5027 v 0 22.9416 c 0,0.8299 -0.6728,1.5027 -1.5027,1.5027 -0.8299,0 -1.5027,-0.6728 -1.5027,-1.5027 z"
         clip-path="url(#1911954389337-clipPath1)"
         id="path33"
         inkscape:connector-curvature="0"
         style="stroke:none" />
    </g>
    <g
       font-size="17px"
       font-weight="bold"
       transform="translate(37.2133,10.7327)"
       id="g39"
       style="font-weight:bold;font-size:17px;font-family:sans-serif;text-rendering:geometricPrecision">
      <text
         x="0"
         xml:space="preserve"
         y="16"
         clip-path="url(#1911954389467-clipPath1)"
         id="text37"
         style="stroke:none">O</text>
    </g>
    <g
       font-size="17px"
       font-weight="bold"
       transform="translate(191.1117,13.8636)"
       id="g43"
       style="font-weight:bold;font-size:17px;font-family:sans-serif;text-rendering:geometricPrecision">
      <text
         x="0"
         xml:space="preserve"
         y="16"
         clip-path="url(#1911954389897-clipPath1)"
         id="text41"
         style="stroke:none">OH</text>
    </g>
  </g>
  <text
     xml:space="preserve"
     style="font-style:normal;font-weight:normal;font-size:40px;line-height:1.25;font-family:sans-serif;letter-spacing:0px;word-spacing:0px;fill:#000000;fill-opacity:1;stroke:none"
     x="24.820717"
     y="103.12749"
     id="text860"><tspan
       sodipodi:role="line"
       id="tspan858"
       x="24.820717"
       y="103.12749"
       style="font-style:normal;font-variant:normal;font-weight:bold;font-stretch:normal;font-size:24px;font-family:sans-serif;-inkscape-font-specification:'sans-serif Bold'">Ketone</tspan></text>
  <text
     xml:space="preserve"
     style="font-style:normal;font-weight:normal;font-size:40px;line-height:1.25;font-family:sans-serif;letter-spacing:0px;word-spacing:0px;color-interpolation:auto;fill:#000000;fill-opacity:1;stroke:none;stroke-width:1;stroke-linecap:square;stroke-linejoin:miter;stroke-miterlimit:10;stroke-dasharray:none;stroke-dashoffset:0;stroke-opacity:1;color-rendering:auto;image-rendering:auto;shape-rendering:auto;text-rendering:auto"
     x="168.68195"
     y="103.12717"
     id="text860-3"><tspan
       sodipodi:role="line"
       id="tspan858-6"
       x="168.68195"
       y="103.12717"
       style="font-style:normal;font-variant:normal;font-weight:bold;font-stretch:normal;font-size:24px;font-family:sans-serif;-inkscape-font-specification:'sans-serif Bold'">Hydroxyl</tspan></text>
</svg>
