<?xml version="1.0" encoding="UTF-8" standalone="no"?>
<svg
   xmlns:dc="http://purl.org/dc/elements/1.1/"
   xmlns:cc="http://creativecommons.org/ns#"
   xmlns:rdf="http://www.w3.org/1999/02/22-rdf-syntax-ns#"
   xmlns:svg="http://www.w3.org/2000/svg"
   xmlns="http://www.w3.org/2000/svg"
   xmlns:sodipodi="http://sodipodi.sourceforge.net/DTD/sodipodi-0.dtd"
   xmlns:inkscape="http://www.inkscape.org/namespaces/inkscape"
   fill-opacity="1"
   color-rendering="auto"
   color-interpolation="auto"
   text-rendering="auto"
   stroke="black"
   stroke-linecap="square"
   width="232"
   stroke-miterlimit="10"
   shape-rendering="auto"
   stroke-opacity="1"
   fill="black"
   stroke-dasharray="none"
   font-weight="normal"
   stroke-width="1"
   height="406"
   font-family="'Dialog'"
   font-style="normal"
   stroke-linejoin="miter"
   font-size="12px"
   stroke-dashoffset="0"
   image-rendering="auto"
   version="1.1"
   id="svg295"
   sodipodi:docname="pc.svg"
   inkscape:version="0.92.3 (2405546, 2018-03-11)">
  <metadata
     id="metadata299">
    <rdf:RDF>
      <cc:Work
         rdf:about="">
        <dc:format>image/svg+xml</dc:format>
        <dc:type
           rdf:resource="http://purl.org/dc/dcmitype/StillImage" />
      </cc:Work>
    </rdf:RDF>
  </metadata>
  <sodipodi:namedview
     pagecolor="#ffffff"
     bordercolor="#666666"
     borderopacity="1"
     objecttolerance="10"
     gridtolerance="10"
     guidetolerance="10"
     inkscape:pageopacity="0"
     inkscape:pageshadow="2"
     inkscape:window-width="1360"
     inkscape:window-height="740"
     id="namedview297"
     showgrid="false"
     inkscape:zoom="3.2882206"
     inkscape:cx="148.33999"
     inkscape:cy="216.99829"
     inkscape:window-x="0"
     inkscape:window-y="0"
     inkscape:window-maximized="1"
     inkscape:current-layer="g1248" />
  <!--Generated by Marvin with Batik SVG Generator
MolSource:
<?xml version="1.0" encoding="UTF-8"?><cml xmlns="http://www.chemaxon.com" xmlns:xsi="http://www.w3.org/2001/XMLSchema-instance" xsi:schemaLocation="http://www.chemaxon.com/marvin/schema/mrvSchema_20_20_0.xsd" version="ChemAxon file format v20.20.0, generated by v22.11.0">
<MDocument atomSetRGB="1:#000000" atomSetFont="1:SansSerif-BOLD-14" bondSetRGB="1:#000000" bondSetLineThickness="1:0.13333333333333333"><MChemicalStruct><molecule molID="m1"><atomArray atomID="a1 a2 a3 a4 a5 a6 a7 a8 a9 a10 a11 a12 a13 a14 a15 a16 a17 a18 a19 a20 a21 a22 a23 a24 a25 a26 a27 a28 a29 a30 a31 a32 a33 a34 a35 a36 a37 a38 a39 a40 a41 a42 a43 a44 a45 a46 a47 a48 a49 a50 a51 a52 a53 a54" elementType="O C C C O O C C C C C C C C C C C C C C C C C C O C C C C C C C C C C C C C C C C C C O P O O O C C N C C C" formalCharge="0 0 0 0 0 0 0 0 0 0 0 0 0 0 0 0 0 0 0 0 0 0 0 0 0 0 0 0 0 0 0 0 0 0 0 0 0 0 0 0 0 0 0 0 0 0 0 0 0 0 1 0 0 0" mrvSetSeq="1 1 1 1 1 1 1 1 1 1 1 1 1 1 1 1 1 1 1 1 1 1 1 1 1 1 1 1 1 1 1 1 1 1 1 1 1 1 1 1 1 1 1 1 1 1 1 1 1 1 1 1 1 1" x2="-11.4582 -10.1246 -8.7910 -7.4574 -6.1238 -8.7910 -5.3243 -6.0645 -5.2653 -6.0055 -5.2063 -5.9465 -5.1473 -5.8876 -5.0883 -5.0807 -5.8336 -5.0466 -5.7994 -5.0124 -5.7652 -4.9783 -5.7311 -4.9441 -3.7848 -9.5441 -8.7571 -9.5099 -8.7230 -9.4758 -8.6889 -9.4417 -8.6547 -9.4075 -9.3612 -8.5620 -9.3023 -9.2686 -8.4816 -9.2344 -9.1882 -8.4120 -9.1758 -11.0839 -12.7917 -14.1253 -12.7917 -14.1253 -15.4589 -16.7925 -18.1261 -19.4597 -18.1261 -19.4597" y2="3.4577 4.2276 3.4577 4.2276 3.4577 1.9178 2.1417 0.7906 -0.5264 -1.8774 -3.1945 -4.5455 -5.8625 -7.2136 -8.5306 -10.0711 -11.4152 -12.7396 -14.0837 -15.4081 -16.7522 -18.0766 -19.4207 -20.7450 2.1761 0.5746 -0.7497 -2.0938 -3.4181 -4.7623 -6.0867 -7.4308 -8.7552 -10.0992 -11.6391 -12.9561 -14.3071 -15.8474 -17.1717 -18.5159 -20.0557 -21.3864 -22.7243 0.5554 4.2276 3.4577 5.7675 4.9976 4.2276 4.9976 4.2276 4.9976 2.6877 3.4577"></atomArray><bondArray><bond id="b1" atomRefs2="a1 a2" order="1" mrvSetSeq="1"></bond><bond id="b2" atomRefs2="a2 a3" order="1" mrvSetSeq="1"></bond><bond id="b3" atomRefs2="a3 a4" order="1" mrvSetSeq="1"></bond><bond id="b4" atomRefs2="a4 a5" order="1" mrvSetSeq="1"></bond><bond id="b5" atomRefs2="a3 a6" order="1" mrvSetSeq="1"></bond><bond id="b6" atomRefs2="a7 a8" order="1" mrvSetSeq="1"></bond><bond id="b7" atomRefs2="a8 a9" order="1" mrvSetSeq="1"></bond><bond id="b8" atomRefs2="a9 a10" order="1" mrvSetSeq="1"></bond><bond id="b9" atomRefs2="a10 a11" order="1" mrvSetSeq="1"></bond><bond id="b10" atomRefs2="a11 a12" order="1" mrvSetSeq="1"></bond><bond id="b11" atomRefs2="a12 a13" order="1" mrvSetSeq="1"></bond><bond id="b12" atomRefs2="a13 a14" order="1" mrvSetSeq="1"></bond><bond id="b13" atomRefs2="a14 a15" order="1" mrvSetSeq="1"></bond><bond id="b14" atomRefs2="a15 a16" order="2" mrvSetSeq="1"></bond><bond id="b15" atomRefs2="a16 a17" order="1" mrvSetSeq="1"></bond><bond id="b16" atomRefs2="a17 a18" order="1" mrvSetSeq="1"></bond><bond id="b17" atomRefs2="a18 a19" order="1" mrvSetSeq="1"></bond><bond id="b18" atomRefs2="a19 a20" order="1" mrvSetSeq="1"></bond><bond id="b19" atomRefs2="a20 a21" order="1" mrvSetSeq="1"></bond><bond id="b20" atomRefs2="a21 a22" order="1" mrvSetSeq="1"></bond><bond id="b21" atomRefs2="a22 a23" order="1" mrvSetSeq="1"></bond><bond id="b22" atomRefs2="a23 a24" order="1" mrvSetSeq="1"></bond><bond id="b23" atomRefs2="a7 a25" order="2" mrvSetSeq="1"></bond><bond id="b24" atomRefs2="a26 a27" order="1" mrvSetSeq="1"></bond><bond id="b25" atomRefs2="a27 a28" order="1" mrvSetSeq="1"></bond><bond id="b26" atomRefs2="a28 a29" order="1" mrvSetSeq="1"></bond><bond id="b27" atomRefs2="a29 a30" order="1" mrvSetSeq="1"></bond><bond id="b28" atomRefs2="a30 a31" order="1" mrvSetSeq="1"></bond><bond id="b29" atomRefs2="a31 a32" order="1" mrvSetSeq="1"></bond><bond id="b30" atomRefs2="a32 a33" order="1" mrvSetSeq="1"></bond><bond id="b31" atomRefs2="a33 a34" order="1" mrvSetSeq="1"></bond><bond id="b32" atomRefs2="a34 a35" order="2" mrvSetSeq="1"></bond><bond id="b33" atomRefs2="a35 a36" order="1" mrvSetSeq="1"></bond><bond id="b34" atomRefs2="a36 a37" order="1" mrvSetSeq="1"></bond><bond id="b35" atomRefs2="a37 a38" order="2" mrvSetSeq="1"></bond><bond id="b36" atomRefs2="a38 a39" order="1" mrvSetSeq="1"></bond><bond id="b37" atomRefs2="a39 a40" order="1" mrvSetSeq="1"></bond><bond id="b38" atomRefs2="a40 a41" order="2" mrvSetSeq="1"></bond><bond id="b39" atomRefs2="a41 a42" order="1" mrvSetSeq="1"></bond><bond id="b40" atomRefs2="a42 a43" order="1" mrvSetSeq="1"></bond><bond id="b41" atomRefs2="a26 a44" order="2" mrvSetSeq="1"></bond><bond id="b42" atomRefs2="a7 a5" order="1" mrvSetSeq="1"></bond><bond id="b43" atomRefs2="a26 a6" order="1" mrvSetSeq="1"></bond><bond id="b44" atomRefs2="a1 a45" order="1" mrvSetSeq="1"></bond><bond id="b45" atomRefs2="a45 a46" order="1" mrvSetSeq="1"></bond><bond id="b46" atomRefs2="a45 a47" order="2" mrvSetSeq="1"></bond><bond id="b47" atomRefs2="a45 a48" order="1" mrvSetSeq="1"></bond><bond id="b48" atomRefs2="a48 a49" order="1" mrvSetSeq="1"></bond><bond id="b49" atomRefs2="a49 a50" order="1" mrvSetSeq="1"></bond><bond id="b50" atomRefs2="a50 a51" order="1" mrvSetSeq="1"></bond><bond id="b51" atomRefs2="a51 a52" order="1" mrvSetSeq="1"></bond><bond id="b52" atomRefs2="a51 a53" order="1" mrvSetSeq="1"></bond><bond id="b53" atomRefs2="a51 a54" order="1" mrvSetSeq="1"></bond></bondArray></molecule></MChemicalStruct></MDocument>
</cml>
-->
  <defs
     id="genericDefs" />
  <g
     id="g293">
    <defs
       id="1397290035307-defs1">
      <clipPath
         clipPathUnits="userSpaceOnUse"
         id="1397290035850-clipPath1">
        <path
           d="M0 0 L232 0 L232 406 L0 406 L0 0 Z"
           id="path3" />
      </clipPath>
      <clipPath
         clipPathUnits="userSpaceOnUse"
         id="1397290035909-clipPath1">
        <path
           d="M-112.7321 -37.3895 L119.2679 -37.3895 L119.2679 368.6105 L-112.7321 368.6105 L-112.7321 -37.3895 Z"
           id="path6" />
      </clipPath>
      <clipPath
         clipPathUnits="userSpaceOnUse"
         id="1397290035973-clipPath1">
        <path
           d="M-184.7557 -37.3895 L47.2443 -37.3895 L47.2443 368.6105 L-184.7557 368.6105 L-184.7557 -37.3895 Z"
           id="path9" />
      </clipPath>
      <clipPath
         clipPathUnits="userSpaceOnUse"
         id="1397290035641-clipPath1">
        <path
           d="M-148.7439 -58.1809 L83.2561 -58.1809 L83.2561 347.8191 L-148.7439 347.8191 L-148.7439 -58.1809 Z"
           id="path12" />
      </clipPath>
      <clipPath
         clipPathUnits="userSpaceOnUse"
         id="1397290035219-clipPath1">
        <path
           d="M-216.3376 -54.6937 L15.6624 -54.6937 L15.6624 351.3063 L-216.3376 351.3063 L-216.3376 -54.6937 Z"
           id="path15" />
      </clipPath>
      <clipPath
         clipPathUnits="userSpaceOnUse"
         id="1397290035525-clipPath1">
        <path
           d="M-117.7854 -76.5763 L114.2146 -76.5763 L114.2146 329.4237 L-117.7854 329.4237 L-117.7854 -76.5763 Z"
           id="path18" />
      </clipPath>
      <clipPath
         clipPathUnits="userSpaceOnUse"
         id="1397290035760-clipPath1">
        <path
           d="M-95.0958 -26.9938 L136.9042 -26.9938 L136.9042 379.0062 L-95.0958 379.0062 L-95.0958 -26.9938 Z"
           id="path21" />
      </clipPath>
      <clipPath
         clipPathUnits="userSpaceOnUse"
         id="1397290035340-clipPath1">
        <path
           d="M-69.6735 -37.3895 L162.3265 -37.3895 L162.3265 368.6105 L-69.6735 368.6105 L-69.6735 -37.3895 Z"
           id="path24" />
      </clipPath>
      <clipPath
         clipPathUnits="userSpaceOnUse"
         id="1397290035525-clipPath2">
        <path
           d="M-94.7262 -6.2024 L137.2737 -6.2024 L137.2737 399.7976 L-94.7262 399.7976 L-94.7262 -6.2024 Z"
           id="path27" />
      </clipPath>
      <clipPath
         clipPathUnits="userSpaceOnUse"
         id="1397290035504-clipPath1">
        <path
           d="M-76.7204 -16.5981 L155.2796 -16.5981 L155.2796 389.4019 L-76.7204 389.4019 L-76.7204 -16.5981 Z"
           id="path30" />
      </clipPath>
      <clipPath
         clipPathUnits="userSpaceOnUse"
         id="1397290035918-clipPath1">
        <path
           d="M-22.7605 -26.9938 L209.2395 -26.9938 L209.2395 379.0062 L-22.7605 379.0062 L-22.7605 -26.9938 Z"
           id="path33" />
      </clipPath>
    </defs>
    <g
       text-rendering="geometricPrecision"
       id="g39">
      <path
         d="M122.096 39.6558 L122.096 39.6558 L134.1192 32.7143 C134.5498 32.4657 135.1003 32.6132 135.3488 33.0437 C135.5974 33.4742 135.4499 34.0248 135.0194 34.2733 L135.0194 34.2733 L122.9962 41.2149 C122.5657 41.4635 122.0151 41.316 121.7666 40.8854 C121.518 40.4549 121.6655 39.9044 122.096 39.6558 Z"
         stroke="none"
         clip-path="url(#1397290035850-clipPath1)"
         id="path37" />
    </g>
    <g
       text-rendering="geometricPrecision"
       id="g43">
      <path
         d="M135.0194 32.7143 L135.0194 32.7143 L153.0253 43.11 C153.4558 43.3585 153.6033 43.909 153.3547 44.3396 C153.1062 44.7701 152.5556 44.9176 152.1251 44.669 L152.1251 44.669 L134.1192 34.2733 C133.6887 34.0248 133.5412 33.4742 133.7898 33.0437 C134.0383 32.6132 134.5888 32.4657 135.0194 32.7143 Z"
         stroke="none"
         clip-path="url(#1397290035850-clipPath1)"
         id="path41" />
    </g>
    <g
       text-rendering="geometricPrecision"
       id="g47">
      <path
         d="M152.1251 43.11 L152.1251 43.11 L170.131 32.7143 C170.5616 32.4657 171.1121 32.6132 171.3606 33.0437 C171.6092 33.4742 171.4617 34.0248 171.0312 34.2733 L171.0312 34.2733 L153.0253 44.669 C152.5947 44.9176 152.0442 44.7701 151.7957 44.3396 C151.5471 43.909 151.6946 43.3585 152.1251 43.11 Z"
         stroke="none"
         clip-path="url(#1397290035850-clipPath1)"
         id="path45" />
    </g>
    <g
       text-rendering="geometricPrecision"
       id="g51">
      <path
         d="M171.0312 32.7143 L171.0312 32.7143 L183.0543 39.6558 C183.4849 39.9044 183.6324 40.4549 183.3838 40.8854 C183.1352 41.316 182.5847 41.4635 182.1542 41.2149 L182.1542 41.2149 L170.131 34.2733 C169.7005 34.0248 169.553 33.4742 169.8016 33.0437 C170.0501 32.6132 170.6006 32.4657 171.0312 32.7143 Z"
         stroke="none"
         clip-path="url(#1397290035850-clipPath1)"
         id="path49" />
    </g>
    <g
       text-rendering="geometricPrecision"
       id="g55">
      <path
         d="M153.4753 43.8895 L153.4753 43.8895 L153.4753 57.8167 C153.4753 58.3139 153.0723 58.7169 152.5752 58.7169 C152.0781 58.7169 151.6751 58.3139 151.6751 57.8167 L151.6751 57.8167 L151.6751 43.8895 C151.6751 43.3924 152.0781 42.9894 152.5752 42.9894 C153.0723 42.9894 153.4753 43.3924 153.4753 43.8895 Z"
         stroke="none"
         clip-path="url(#1397290035850-clipPath1)"
         id="path53" />
    </g>
    <g
       text-rendering="geometricPrecision"
       id="g59">
      <path
         d="M200.172 62.091 L200.172 62.091 L190.1771 80.3327 C189.9382 80.7687 189.3911 80.9284 188.9552 80.6896 C188.5192 80.4507 188.3594 79.9036 188.5983 79.4676 L188.5983 79.4676 L198.5932 61.226 C198.8321 60.79 199.3792 60.6302 199.8151 60.8691 C200.2511 61.108 200.4109 61.6551 200.172 62.091 Z"
         stroke="none"
         clip-path="url(#1397290035850-clipPath1)"
         id="path57" />
    </g>
    <g
       text-rendering="geometricPrecision"
       id="g63">
      <path
         d="M190.1572 79.4332 L190.1572 79.4332 L200.9486 97.2153 C201.2065 97.6403 201.0711 98.1939 200.6461 98.4518 C200.2211 98.7097 199.6675 98.5742 199.4096 98.1492 L199.4096 98.1492 L188.6182 80.3672 C188.3602 79.9422 188.4957 79.3886 188.9207 79.1307 C189.3457 78.8727 189.8993 79.0082 190.1572 79.4332 Z"
         stroke="none"
         clip-path="url(#1397290035850-clipPath1)"
         id="path61" />
    </g>
    <g
       text-rendering="geometricPrecision"
       id="g67">
      <path
         d="M200.9685 98.1148 L200.9685 98.1148 L190.9736 116.3564 C190.7347 116.7924 190.1876 116.9522 189.7516 116.7133 C189.3157 116.4744 189.1559 115.9274 189.3948 115.4914 L189.3948 115.4914 L199.3897 97.2497 C199.6286 96.8138 200.1756 96.654 200.6116 96.8929 C201.0476 97.1317 201.2074 97.6788 200.9685 98.1148 Z"
         stroke="none"
         clip-path="url(#1397290035850-clipPath1)"
         id="path65" />
    </g>
    <g
       text-rendering="geometricPrecision"
       id="g71">
      <path
         d="M190.9537 115.4569 L190.9537 115.4569 L201.7451 133.239 C202.003 133.664 201.8676 134.2176 201.4426 134.4755 C201.0176 134.7334 200.464 134.598 200.2061 134.173 L200.2061 134.173 L189.4146 116.3909 C189.1567 115.9659 189.2922 115.4123 189.7172 115.1544 C190.1422 114.8965 190.6958 115.0319 190.9537 115.4569 Z"
         stroke="none"
         clip-path="url(#1397290035850-clipPath1)"
         id="path69" />
    </g>
    <g
       text-rendering="geometricPrecision"
       id="g75">
      <path
         d="M201.765 134.1385 L201.765 134.1385 L191.77 152.3802 C191.5312 152.8162 190.9841 152.976 190.5481 152.7371 C190.1122 152.4982 189.9524 151.9511 190.1912 151.5152 L190.1912 151.5152 L200.1862 133.2735 C200.425 132.8375 200.9721 132.6777 201.4081 132.9166 C201.8441 133.1555 202.0038 133.7026 201.765 134.1385 Z"
         stroke="none"
         clip-path="url(#1397290035850-clipPath1)"
         id="path73" />
    </g>
    <g
       text-rendering="geometricPrecision"
       id="g79">
      <path
         d="M191.7502 151.4807 L191.7502 151.4807 L202.5416 169.2628 C202.7995 169.6878 202.664 170.2413 202.239 170.4993 C201.8141 170.7572 201.2605 170.6217 201.0025 170.1967 L201.0025 170.1967 L190.2111 152.4147 C189.9532 151.9897 190.0887 151.4361 190.5137 151.1782 C190.9386 150.9203 191.4922 151.0557 191.7502 151.4807 Z"
         stroke="none"
         clip-path="url(#1397290035850-clipPath1)"
         id="path77" />
    </g>
    <g
       text-rendering="geometricPrecision"
       id="g83">
      <path
         d="M202.5614 170.1623 L202.5614 170.1623 L192.5665 188.4039 C192.3277 188.8399 191.7806 188.9997 191.3446 188.7608 C190.9086 188.5219 190.7489 187.9749 190.9877 187.5389 L190.9877 187.5389 L200.9827 169.2972 C201.2215 168.8613 201.7686 168.7015 202.2046 168.9404 C202.6405 169.1792 202.8003 169.7263 202.5614 170.1623 Z"
         stroke="none"
         clip-path="url(#1397290035850-clipPath1)"
         id="path81" />
    </g>
    <g
       text-rendering="geometricPrecision"
       id="g87">
      <path
         d="M192.5466 187.5044 L192.5466 187.5044 L203.338 205.2865 C203.596 205.7115 203.4605 206.2651 203.0355 206.523 C202.6105 206.7809 202.0569 206.6455 201.799 206.2205 L201.799 206.2205 L191.0076 188.4384 C190.7497 188.0134 190.8851 187.4598 191.3101 187.2019 C191.7351 186.944 192.2887 187.0794 192.5466 187.5044 Z"
         stroke="none"
         clip-path="url(#1397290035850-clipPath1)"
         id="path85" />
    </g>
    <g
       text-rendering="geometricPrecision"
       id="g91">
      <path
         d="M203.4687 205.7491 C203.4662 205.252 203.0612 204.851 202.5641 204.8534 C202.067 204.8558 201.666 205.2608 201.6684 205.7579 L201.7704 226.5581 C201.7728 227.0552 202.1778 227.4562 202.6749 227.4538 C203.172 227.4513 203.5731 227.0464 203.5706 226.5493 ZM199.7277 207.7067 C199.7253 207.2096 199.3203 206.8085 198.8232 206.811 C198.326 206.8134 197.925 207.2184 197.9275 207.7155 L198.0107 224.6878 C198.0131 225.1849 198.4181 225.5859 198.9152 225.5835 C199.4123 225.581 199.8133 225.1761 199.8109 224.6789 Z"
         stroke="none"
         clip-path="url(#1397290035850-clipPath1)"
         id="path89" />
    </g>
    <g
       text-rendering="geometricPrecision"
       id="g95">
      <path
         d="M203.4559 226.9935 L203.4559 226.9935 L193.2916 245.1414 C193.0487 245.5751 192.5001 245.7298 192.0664 245.4869 C191.6327 245.2439 191.478 244.6954 191.7209 244.2617 L191.7209 244.2617 L201.8852 226.1138 C202.1281 225.6801 202.6766 225.5254 203.1104 225.7683 C203.5441 226.0112 203.6988 226.5598 203.4559 226.9935 Z"
         stroke="none"
         clip-path="url(#1397290035850-clipPath1)"
         id="path93" />
    </g>
    <g
       text-rendering="geometricPrecision"
       id="g99">
      <path
         d="M193.2801 244.2417 L193.2801 244.2417 L203.9055 262.1234 C204.1595 262.5508 204.0189 263.1031 203.5915 263.3571 C203.1642 263.611 202.6118 263.4705 202.3579 263.0431 L202.3579 263.0431 L191.7324 245.1613 C191.4785 244.734 191.6191 244.1817 192.0464 243.9277 C192.4738 243.6738 193.0261 243.8143 193.2801 244.2417 Z"
         stroke="none"
         clip-path="url(#1397290035850-clipPath1)"
         id="path97" />
    </g>
    <g
       text-rendering="geometricPrecision"
       id="g103">
      <path
         d="M203.9171 263.0231 L203.9171 263.0231 L193.7528 281.171 C193.5099 281.6047 192.9613 281.7594 192.5276 281.5165 C192.0939 281.2736 191.9392 280.725 192.1821 280.2913 L192.1821 280.2913 L202.3464 262.1434 C202.5893 261.7097 203.1378 261.555 203.5716 261.7979 C204.0053 262.0409 204.16 262.5894 203.9171 263.0231 Z"
         stroke="none"
         clip-path="url(#1397290035850-clipPath1)"
         id="path101" />
    </g>
    <g
       text-rendering="geometricPrecision"
       id="g107">
      <path
         d="M193.7413 280.2713 L193.7413 280.2713 L204.3668 298.153 C204.6207 298.5804 204.4801 299.1328 204.0527 299.3867 C203.6254 299.6406 203.0731 299.5001 202.8191 299.0727 L202.8191 299.0727 L192.1936 281.1909 C191.9397 280.7636 192.0803 280.2112 192.5077 279.9573 C192.935 279.7034 193.4874 279.844 193.7413 280.2713 Z"
         stroke="none"
         clip-path="url(#1397290035850-clipPath1)"
         id="path105" />
    </g>
    <g
       text-rendering="geometricPrecision"
       id="g111">
      <path
         d="M204.3783 299.0527 L204.3783 299.0527 L194.214 317.2006 C193.9711 317.6343 193.4226 317.789 192.9888 317.5461 C192.5551 317.3032 192.4004 316.7546 192.6433 316.3209 L192.6433 316.3209 L202.8076 298.173 C203.0505 297.7393 203.5991 297.5846 204.0328 297.8275 C204.4665 298.0705 204.6212 298.619 204.3783 299.0527 Z"
         stroke="none"
         clip-path="url(#1397290035850-clipPath1)"
         id="path109" />
    </g>
    <g
       text-rendering="geometricPrecision"
       id="g115">
      <path
         d="M194.2025 316.3009 L194.2025 316.3009 L204.828 334.1826 C205.0819 334.61 204.9413 335.1624 204.514 335.4163 C204.0866 335.6702 203.5343 335.5297 203.2803 335.1023 L203.2803 335.1023 L192.6549 317.2206 C192.4009 316.7932 192.5415 316.2409 192.9689 315.9869 C193.3962 315.733 193.9486 315.8736 194.2025 316.3009 Z"
         stroke="none"
         clip-path="url(#1397290035850-clipPath1)"
         id="path113" />
    </g>
    <g
       text-rendering="geometricPrecision"
       id="g119">
      <path
         d="M204.8395 335.0823 L204.8395 335.0823 L194.6752 353.2302 C194.4323 353.6639 193.8838 353.8186 193.45 353.5757 C193.0163 353.3328 192.8616 352.7842 193.1046 352.3505 L193.1046 352.3505 L203.2688 334.2026 C203.5117 333.7689 204.0603 333.6142 204.494 333.8571 C204.9277 334.1001 205.0824 334.6486 204.8395 335.0823 Z"
         stroke="none"
         clip-path="url(#1397290035850-clipPath1)"
         id="path117" />
    </g>
    <g
       text-rendering="geometricPrecision"
       id="g123">
      <path
         d="M194.6637 352.3305 L194.6637 352.3305 L205.2892 370.2123 C205.5431 370.6396 205.4025 371.192 204.9752 371.4459 C204.5478 371.6999 203.9955 371.5593 203.7415 371.1319 L203.7415 371.1319 L193.1161 353.2502 C192.8621 352.8228 193.0027 352.2705 193.4301 352.0165 C193.8575 351.7626 194.4098 351.9032 194.6637 352.3305 Z"
         stroke="none"
         clip-path="url(#1397290035850-clipPath1)"
         id="path121" />
    </g>
    <g
       text-rendering="geometricPrecision"
       id="g127">
      <path
         d="M198.2381 58.908 C197.7411 58.9191 197.3473 59.331 197.3584 59.828 C197.3695 60.325 197.7814 60.7189 198.2784 60.7078 L213.7694 60.3614 C214.2664 60.3503 214.6603 59.9384 214.6492 59.4414 C214.638 58.9444 214.2261 58.5505 213.7291 58.5616 ZM198.322 62.6576 C197.825 62.6687 197.4311 63.0806 197.4422 63.5776 C197.4533 64.0746 197.8652 64.4685 198.3622 64.4574 L213.8532 64.111 C214.3502 64.0999 214.7441 63.688 214.733 63.191 C214.7219 62.694 214.31 62.3001 213.813 62.3112 Z"
         stroke="none"
         clip-path="url(#1397290035850-clipPath1)"
         id="path125" />
    </g>
    <g
       text-rendering="geometricPrecision"
       id="g131">
      <path
         d="M143.1805 82.3562 L143.1805 82.3562 L153.8062 100.2377 C154.0602 100.6651 153.9196 101.2174 153.4922 101.4713 C153.0648 101.7253 152.5125 101.5847 152.2586 101.1573 L152.2586 101.1573 L141.6329 83.2758 C141.3789 82.8485 141.5195 82.2962 141.9469 82.0422 C142.3742 81.7882 142.9265 81.9288 143.1805 82.3562 Z"
         stroke="none"
         clip-path="url(#1397290035850-clipPath1)"
         id="path129" />
    </g>
    <g
       text-rendering="geometricPrecision"
       id="g135">
      <path
         d="M153.8177 101.1374 L153.8177 101.1374 L143.6535 119.2846 C143.4105 119.7183 142.862 119.873 142.4283 119.63 C141.9945 119.3871 141.8399 118.8386 142.0828 118.4048 L142.0828 118.4048 L152.247 100.2577 C152.49 99.8239 153.0385 99.6693 153.4722 99.9122 C153.906 100.1551 154.0606 100.7037 153.8177 101.1374 Z"
         stroke="none"
         clip-path="url(#1397290035850-clipPath1)"
         id="path133" />
    </g>
    <g
       text-rendering="geometricPrecision"
       id="g139">
      <path
         d="M143.6419 118.3849 L143.6419 118.3849 L154.2676 136.2664 C154.5216 136.6938 154.381 137.2461 153.9536 137.5 C153.5263 137.754 152.974 137.6134 152.72 137.186 L152.72 137.186 L142.0943 119.3045 C141.8404 118.8772 141.9809 118.3248 142.4083 118.0709 C142.8357 117.8169 143.388 117.9575 143.6419 118.3849 Z"
         stroke="none"
         clip-path="url(#1397290035850-clipPath1)"
         id="path137" />
    </g>
    <g
       text-rendering="geometricPrecision"
       id="g143">
      <path
         d="M154.2792 137.1661 L154.2792 137.1661 L144.1149 155.3146 C143.872 155.7483 143.3235 155.903 142.8898 155.6601 C142.456 155.4172 142.3013 154.8686 142.5443 154.4349 L142.5443 154.4349 L152.7085 136.2864 C152.9514 135.8526 153.4999 135.698 153.9337 135.9409 C154.3674 136.1838 154.5221 136.7323 154.2792 137.1661 Z"
         stroke="none"
         clip-path="url(#1397290035850-clipPath1)"
         id="path141" />
    </g>
    <g
       text-rendering="geometricPrecision"
       id="g147">
      <path
         d="M144.1034 154.415 L144.1034 154.415 L154.7278 172.2965 C154.9817 172.7239 154.8411 173.2762 154.4137 173.5301 C153.9863 173.7841 153.434 173.6434 153.1801 173.2161 L153.1801 173.2161 L142.5558 155.3345 C142.3018 154.9072 142.4424 154.3548 142.8698 154.1009 C143.2972 153.847 143.8495 153.9876 144.1034 154.415 Z"
         stroke="none"
         clip-path="url(#1397290035850-clipPath1)"
         id="path145" />
    </g>
    <g
       text-rendering="geometricPrecision"
       id="g151">
      <path
         d="M154.7393 173.1961 L154.7393 173.1961 L144.5751 191.3447 C144.3321 191.7784 143.7836 191.9331 143.3499 191.6902 C142.9161 191.4472 142.7615 190.8987 143.0044 190.465 L143.0044 190.465 L153.1686 172.3164 C153.4115 171.8827 153.9601 171.728 154.3938 171.9709 C154.8275 172.2139 154.9822 172.7624 154.7393 173.1961 Z"
         stroke="none"
         clip-path="url(#1397290035850-clipPath1)"
         id="path149" />
    </g>
    <g
       text-rendering="geometricPrecision"
       id="g155">
      <path
         d="M144.5635 190.445 L144.5635 190.445 L155.1892 208.3265 C155.4432 208.7539 155.3026 209.3062 154.8752 209.5601 C154.4479 209.8141 153.8956 209.6735 153.6416 209.2461 L153.6416 209.2461 L143.0159 191.3646 C142.7619 190.9373 142.9025 190.3849 143.3299 190.131 C143.7573 189.877 144.3096 190.0176 144.5635 190.445 Z"
         stroke="none"
         clip-path="url(#1397290035850-clipPath1)"
         id="path153" />
    </g>
    <g
       text-rendering="geometricPrecision"
       id="g159">
      <path
         d="M155.2007 209.2262 L155.2007 209.2262 L145.0365 227.3734 C144.7936 227.8071 144.245 227.9618 143.8113 227.7188 C143.3776 227.4759 143.2229 226.9274 143.4658 226.4936 L143.4658 226.4936 L153.6301 208.3465 C153.873 207.9127 154.4216 207.7581 154.8553 208.001 C155.289 208.2439 155.4437 208.7925 155.2007 209.2262 Z"
         stroke="none"
         clip-path="url(#1397290035850-clipPath1)"
         id="path157" />
    </g>
    <g
       text-rendering="geometricPrecision"
       id="g163">
      <path
         d="M148.958 228.7323 C148.943 228.2354 148.5281 227.8447 148.0312 227.8596 C147.5343 227.8745 147.1436 228.2894 147.1585 228.7863 L147.6684 245.7518 C147.6833 246.2487 148.0983 246.6395 148.5952 246.6245 C149.0921 246.6096 149.4828 246.1947 149.4678 245.6978 ZM145.1509 226.9065 C145.1359 226.4096 144.721 226.0188 144.2241 226.0338 C143.7272 226.0487 143.3365 226.4636 143.3514 226.9605 L143.9763 247.7523 C143.9913 248.2492 144.4062 248.6399 144.9031 248.625 C145.4 248.6101 145.7907 248.1951 145.7758 247.6982 Z"
         stroke="none"
         clip-path="url(#1397290035850-clipPath1)"
         id="path161" />
    </g>
    <g
       text-rendering="geometricPrecision"
       id="g167">
      <path
         d="M145.6455 247.2583 L145.6455 247.2583 L156.4369 265.0397 C156.6949 265.4647 156.5594 266.0182 156.1344 266.2762 C155.7094 266.5341 155.1558 266.3987 154.8979 265.9737 L154.8979 265.9737 L144.1065 248.1923 C143.8486 247.7673 143.9841 247.2137 144.409 246.9558 C144.834 246.6979 145.3876 246.8333 145.6455 247.2583 Z"
         stroke="none"
         clip-path="url(#1397290035850-clipPath1)"
         id="path165" />
    </g>
    <g
       text-rendering="geometricPrecision"
       id="g171">
      <path
         d="M156.4568 265.9392 L156.4568 265.9392 L146.4617 284.1807 C146.2228 284.6166 145.6757 284.7764 145.2397 284.5375 C144.8038 284.2986 144.644 283.7516 144.8829 283.3156 L144.8829 283.3156 L154.878 265.0742 C155.1169 264.6382 155.664 264.4784 156.1 264.7173 C156.5359 264.9562 156.6957 265.5032 156.4568 265.9392 Z"
         stroke="none"
         clip-path="url(#1397290035850-clipPath1)"
         id="path169" />
    </g>
    <g
       text-rendering="geometricPrecision"
       id="g175">
      <path
         d="M150.3634 285.5502 C150.3525 285.0532 149.9408 284.6591 149.4438 284.6699 C148.9468 284.6808 148.5527 285.0925 148.5636 285.5895 L148.935 302.5959 C148.9459 303.0929 149.3576 303.487 149.8546 303.4761 C150.3516 303.4653 150.7457 303.0536 150.7349 302.5566 ZM146.5722 283.7285 C146.5613 283.2315 146.1496 282.8374 145.6526 282.8482 C145.1556 282.8591 144.7615 283.2708 144.7724 283.7678 L145.2266 304.5638 C145.2375 305.0608 145.6492 305.4549 146.1462 305.4441 C146.6432 305.4332 147.0373 305.0215 147.0264 304.5245 Z"
         stroke="none"
         clip-path="url(#1397290035850-clipPath1)"
         id="path173" />
    </g>
    <g
       text-rendering="geometricPrecision"
       id="g179">
      <path
         d="M146.9003 304.0843 L146.9003 304.0843 L157.526 321.9659 C157.78 322.3932 157.6394 322.9455 157.212 323.1995 C156.7847 323.4534 156.2324 323.3128 155.9784 322.8855 L155.9784 322.8855 L145.3527 305.004 C145.0988 304.5766 145.2393 304.0243 145.6667 303.7703 C146.0941 303.5164 146.6464 303.657 146.9003 304.0843 Z"
         stroke="none"
         clip-path="url(#1397290035850-clipPath1)"
         id="path177" />
    </g>
    <g
       text-rendering="geometricPrecision"
       id="g183">
      <path
         d="M157.5376 322.8655 L157.5376 322.8655 L147.3733 341.014 C147.1304 341.4478 146.5819 341.6024 146.1481 341.3595 C145.7144 341.1166 145.5597 340.5681 145.8026 340.1343 L145.8026 340.1343 L155.9669 321.9858 C156.2098 321.5521 156.7583 321.3974 157.1921 321.6403 C157.6258 321.8832 157.7805 322.4318 157.5376 322.8655 Z"
         stroke="none"
         clip-path="url(#1397290035850-clipPath1)"
         id="path181" />
    </g>
    <g
       text-rendering="geometricPrecision"
       id="g187">
      <path
         d="M151.2948 342.373 C151.2798 341.876 150.8649 341.4853 150.368 341.5002 C149.8711 341.5152 149.4804 341.9301 149.4953 342.427 L150.0058 359.4266 C150.0207 359.9236 150.4356 360.3143 150.9325 360.2993 C151.4294 360.2844 151.8201 359.8695 151.8052 359.3726 ZM147.4877 340.5472 C147.4728 340.0503 147.0579 339.6595 146.561 339.6745 C146.0641 339.6894 145.6734 340.1043 145.6883 340.6012 L146.3126 361.3922 C146.3275 361.8891 146.7424 362.2798 147.2393 362.2649 C147.7362 362.2499 148.127 361.835 148.112 361.3381 Z"
         stroke="none"
         clip-path="url(#1397290035850-clipPath1)"
         id="path185" />
    </g>
    <g
       text-rendering="geometricPrecision"
       id="g191">
      <path
         d="M147.9898 360.9117 L147.9898 360.9117 L158.4693 378.8787 C158.7197 379.3081 158.5746 379.8593 158.1452 380.1097 C157.7158 380.3602 157.1646 380.2151 156.9142 379.7857 L156.9142 379.7857 L146.4348 361.8187 C146.1843 361.3892 146.3294 360.8381 146.7588 360.5876 C147.1882 360.3372 147.7394 360.4822 147.9898 360.9117 Z"
         stroke="none"
         clip-path="url(#1397290035850-clipPath1)"
         id="path189" />
    </g>
    <g
       text-rendering="geometricPrecision"
       id="g195">
      <path
         d="M158.4734 379.7784 L158.4734 379.7784 L148.1614 397.8427 C147.915 398.2744 147.3652 398.4246 146.9335 398.1781 C146.5017 397.9317 146.3515 397.3819 146.598 396.9502 L146.598 396.9502 L156.91 378.8859 C157.1564 378.4542 157.7062 378.304 158.138 378.5504 C158.5697 378.7969 158.7199 379.3467 158.4734 379.7784 Z"
         stroke="none"
         clip-path="url(#1397290035850-clipPath1)"
         id="path193" />
    </g>
    <g
       text-rendering="geometricPrecision"
       id="g199">
      <path
         d="M143.5241 85.5776 C144.0212 85.5714 144.4191 85.1634 144.4129 84.6663 C144.4067 84.1692 143.9987 83.7713 143.5016 83.7775 L127.9975 83.9716 C127.5004 83.9778 127.1025 84.3858 127.1087 84.8829 C127.115 85.38 127.523 85.7779 128.0201 85.7717 ZM143.4769 81.8274 C143.974 81.8212 144.3719 81.4132 144.3657 80.9161 C144.3595 80.419 143.9515 80.0211 143.4544 80.0273 L127.9506 80.2214 C127.4535 80.2276 127.0556 80.6356 127.0618 81.1327 C127.068 81.6298 127.476 82.0277 127.9731 82.0215 Z"
         stroke="none"
         clip-path="url(#1397290035850-clipPath1)"
         id="path197" />
    </g>
    <g
       text-rendering="geometricPrecision"
       id="g203">
      <path
         d="M198.6133 62.1259 L198.6133 62.1259 L191.5383 50.4807 C191.2801 50.0558 191.4153 49.5022 191.8402 49.2441 C192.265 48.9859 192.8187 49.1211 193.0768 49.546 L193.0768 49.546 L200.1519 61.1911 C200.41 61.616 200.2748 62.1697 199.85 62.4278 C199.4251 62.6859 198.8714 62.5507 198.6133 62.1259 Z"
         stroke="none"
         clip-path="url(#1397290035850-clipPath1)"
         id="path201" />
    </g>
    <g
       text-rendering="geometricPrecision"
       id="g207">
      <path
         d="M141.6216 82.3758 L141.6216 82.3758 L148.2939 70.4759 C148.537 70.0423 149.0857 69.8879 149.5193 70.131 C149.9529 70.3741 150.1073 70.9227 149.8642 71.3564 L149.8642 71.3564 L143.1918 83.2562 C142.9487 83.6899 142.4001 83.8443 141.9664 83.6011 C141.5328 83.358 141.3784 82.8094 141.6216 82.3758 Z"
         stroke="none"
         clip-path="url(#1397290035850-clipPath1)"
         id="path205" />
    </g>
    <g
       text-rendering="geometricPrecision"
       id="g211">
      <path
         d="M110.1306 41.2149 L110.1306 41.2149 L103.6427 37.4691 C103.2122 37.2205 103.0647 36.67 103.3132 36.2395 C103.5618 35.809 104.1123 35.6615 104.5428 35.91 L104.5428 35.91 L111.0307 39.6558 C111.4613 39.9044 111.6088 40.4549 111.3602 40.8854 C111.1117 41.316 110.5611 41.4635 110.1306 41.2149 Z"
         stroke="none"
         clip-path="url(#1397290035850-clipPath1)"
         id="path209" />
    </g>
    <g
       text-rendering="geometricPrecision"
       id="g215">
      <path
         d="M93.4723 37.4691 L93.4723 37.4691 L87.835 40.7238 C87.4045 40.9723 86.854 40.8248 86.6054 40.3943 C86.3569 39.9638 86.5044 39.4133 86.9349 39.1647 L86.9349 39.1647 L92.5722 35.91 C93.0027 35.6615 93.5532 35.809 93.8018 36.2395 C94.0503 36.67 93.9028 37.2205 93.4723 37.4691 Z"
         stroke="none"
         clip-path="url(#1397290035850-clipPath1)"
         id="path213" />
    </g>
    <g
       text-rendering="geometricPrecision"
       id="g219">
      <path
         d="M95.7821 26.6999 C95.7821 27.197 96.1851 27.6 96.6822 27.6 C97.1794 27.6 97.5824 27.197 97.5824 26.6999 L97.5824 19.6603 C97.5824 19.1632 97.1794 18.7602 96.6822 18.7602 C96.1851 18.7602 95.7821 19.1632 95.7821 19.6603 ZM99.5326 26.6999 C99.5326 27.197 99.9356 27.6 100.4328 27.6 C100.9299 27.6 101.3329 27.197 101.3329 26.6999 L101.3329 19.6603 C101.3329 19.1632 100.9299 18.7602 100.4328 18.7602 C99.9356 18.7602 99.5326 19.1632 99.5326 19.6603 Z"
         stroke="none"
         clip-path="url(#1397290035850-clipPath1)"
         id="path217" />
    </g>
    <g
       text-rendering="geometricPrecision"
       id="g223">
      <path
         d="M92.5722 31.0775 L92.5722 31.0775 L86.1156 27.3498 C85.6851 27.1013 85.5376 26.5508 85.7861 26.1202 C86.0347 25.6897 86.5852 25.5422 87.0157 25.7908 L87.0157 25.7908 L93.4723 29.5185 C93.9028 29.767 94.0503 30.3175 93.8018 30.7481 C93.5532 31.1786 93.0027 31.3261 92.5722 31.0775 Z"
         stroke="none"
         clip-path="url(#1397290035850-clipPath1)"
         id="path221" />
    </g>
    <g
       text-rendering="geometricPrecision"
       id="g227">
      <path
         d="M74.9876 27.3498 L74.9876 27.3498 L62.9958 34.2733 C62.5653 34.5219 62.0147 34.3744 61.7662 33.9438 C61.5176 33.5133 61.6651 32.9628 62.0956 32.7143 L62.0956 32.7143 L74.0875 25.7908 C74.518 25.5422 75.0685 25.6897 75.3171 26.1202 C75.5657 26.5508 75.4181 27.1013 74.9876 27.3498 Z"
         stroke="none"
         clip-path="url(#1397290035850-clipPath1)"
         id="path225" />
    </g>
    <g
       text-rendering="geometricPrecision"
       id="g231">
      <path
         d="M62.0956 34.2733 L62.0956 34.2733 L44.0898 23.8776 C43.6592 23.629 43.5117 23.0785 43.7603 22.648 C44.0088 22.2175 44.5594 22.07 44.9899 22.3185 L44.9899 22.3185 L62.9958 32.7143 C63.4263 32.9628 63.5738 33.5133 63.3252 33.9438 C63.0767 34.3744 62.5262 34.5219 62.0956 34.2733 Z"
         stroke="none"
         clip-path="url(#1397290035850-clipPath1)"
         id="path229" />
    </g>
    <g
       text-rendering="geometricPrecision"
       id="g235">
      <path
         d="M44.9899 23.8776 L44.9899 23.8776 L32.6781 30.9858 C32.2476 31.2344 31.6971 31.0869 31.4485 30.6563 C31.2 30.2258 31.3475 29.6753 31.778 29.4267 L31.778 29.4267 L44.0898 22.3185 C44.5203 22.07 45.0708 22.2175 45.3193 22.648 C45.5679 23.0785 45.4204 23.629 44.9899 23.8776 Z"
         stroke="none"
         clip-path="url(#1397290035850-clipPath1)"
         id="path233" />
    </g>
    <g
       text-rendering="geometricPrecision"
       id="g239">
      <path
         d="M20.3897 30.9858 L20.3897 30.9858 L8.078 23.8776 C7.6474 23.629 7.4999 23.0785 7.7485 22.648 C7.9971 22.2175 8.5476 22.07 8.9781 22.3185 L8.9781 22.3185 L21.2898 29.4267 C21.7204 29.6753 21.8679 30.2258 21.6193 30.6563 C21.3708 31.0869 20.8202 31.2344 20.3897 30.9858 Z"
         stroke="none"
         clip-path="url(#1397290035850-clipPath1)"
         id="path237" />
    </g>
    <g
       text-rendering="geometricPrecision"
       id="g243">
      <path
         d="M27.434 40.2876 L27.434 40.2876 L27.434 54.2852 C27.434 54.7823 27.031 55.1853 26.5339 55.1853 C26.0368 55.1853 25.6338 54.7823 25.6338 54.2852 L25.6338 54.2852 L25.6338 40.2876 C25.6338 39.7905 26.0368 39.3875 26.5339 39.3875 C27.031 39.3875 27.434 39.7905 27.434 40.2876 Z"
         stroke="none"
         clip-path="url(#1397290035850-clipPath1)"
         id="path241" />
    </g>
    <g
       text-rendering="geometricPrecision"
       id="g247">
      <path
         d="M21.2898 37.5608 L21.2898 37.5608 L8.9781 44.669 C8.5476 44.9176 7.9971 44.7701 7.7485 44.3396 C7.4999 43.909 7.6474 43.3585 8.078 43.11 L8.078 43.11 L20.3897 36.0018 C20.8202 35.7532 21.3708 35.9007 21.6193 36.3312 C21.8679 36.7618 21.7204 37.3123 21.2898 37.5608 Z"
         stroke="none"
         clip-path="url(#1397290035850-clipPath1)"
         id="path245" />
    </g>
    <g
       text-rendering="geometricPrecision"
       font-size="10px"
       font-weight="bold"
       font-family="sans-serif"
       transform="translate(112.7321,37.3895)"
       id="g251">
      <text
         x="0"
         xml:space="preserve"
         y="10"
         clip-path="url(#1397290035909-clipPath1)"
         stroke="none"
         id="text249">O</text>
    </g>
    <g
       text-rendering="geometricPrecision"
       font-size="10px"
       font-weight="bold"
       font-family="sans-serif"
       transform="translate(184.7557,37.3895)"
       id="g255">
      <text
         x="0"
         xml:space="preserve"
         y="10"
         clip-path="url(#1397290035973-clipPath1)"
         stroke="none"
         id="text253">O</text>
    </g>
    <g
       text-rendering="geometricPrecision"
       font-size="10px"
       font-weight="bold"
       font-family="sans-serif"
       transform="translate(148.7439,58.1809)"
       id="g259">
      <text
         x="0"
         xml:space="preserve"
         y="10"
         clip-path="url(#1397290035641-clipPath1)"
         stroke="none"
         id="text257">O</text>
    </g>
    <g
       text-rendering="geometricPrecision"
       font-size="10px"
       font-weight="bold"
       font-family="sans-serif"
       transform="translate(216.3376,54.6937)"
       id="g263">
      <text
         x="0"
         xml:space="preserve"
         y="10"
         clip-path="url(#1397290035219-clipPath1)"
         stroke="none"
         id="text261">O</text>
    </g>
    <g
       text-rendering="geometricPrecision"
       font-size="10px"
       font-weight="bold"
       font-family="sans-serif"
       transform="translate(117.7854,76.5763)"
       id="g267">
      <text
         x="0"
         xml:space="preserve"
         y="10"
         clip-path="url(#1397290035525-clipPath1)"
         stroke="none"
         id="text265">O</text>
    </g>
    <g
       text-rendering="geometricPrecision"
       font-size="10px"
       font-weight="bold"
       font-family="sans-serif"
       transform="translate(95.0958,26.9938)"
       id="g271">
      <text
         x="0"
         xml:space="preserve"
         y="10"
         clip-path="url(#1397290035760-clipPath1)"
         stroke="none"
         id="text269">P</text>
    </g>
    <g
       text-rendering="geometricPrecision"
       font-size="10px"
       font-weight="bold"
       font-family="sans-serif"
       transform="translate(69.6735,37.3895)"
       id="g275">
      <text
         x="0"
         xml:space="preserve"
         y="10"
         clip-path="url(#1397290035340-clipPath1)"
         stroke="none"
         id="text273">HO</text>
    </g>
    <g
       text-rendering="geometricPrecision"
       font-size="10px"
       font-weight="bold"
       font-family="sans-serif"
       transform="translate(94.7263,6.2024)"
       id="g279">
      <text
         x="0"
         xml:space="preserve"
         y="10"
         clip-path="url(#1397290035525-clipPath2)"
         stroke="none"
         id="text277">O</text>
    </g>
    <g
       text-rendering="geometricPrecision"
       font-size="10px"
       font-weight="bold"
       font-family="sans-serif"
       transform="translate(76.7204,16.5981)"
       id="g283">
      <text
         x="0"
         xml:space="preserve"
         y="10"
         clip-path="url(#1397290035504-clipPath1)"
         stroke="none"
         id="text281">O</text>
    </g>
    <g
       text-rendering="geometricPrecision"
       font-size="10px"
       font-weight="bold"
       font-family="sans-serif"
       transform="translate(22.7605,26.9938)"
       id="g287">
      <text
         x="0"
         xml:space="preserve"
         y="10"
         clip-path="url(#1397290035918-clipPath1)"
         stroke="none"
         id="text285">N</text>
    </g>
    <g
       text-rendering="geometricPrecision"
       font-size="10px"
       font-weight="bold"
       font-family="sans-serif"
       id="g291">
      <path
         d="M28.231 24.2733 L28.231 25.8873 L26.617 25.8873 L26.617 26.4253 L28.231 26.4253 L28.231 28.0393 L28.769 28.0393 L28.769 26.4253 L30.383 26.4253 L30.383 25.8873 L28.769 25.8873 L28.769 24.2733 ZM31.459 23.1973 L31.459 29.1153 L25.541 29.1153 L25.541 23.1973 ZM25.541 23.1973 L25.541 23.1973 L25.541 29.1153 L25.541 29.1153 L31.459 29.1153 L31.459 29.1153 L31.459 29.1153 L31.459 23.1973 L31.459 23.1973 Z"
         stroke="none"
         clip-path="url(#1397290035850-clipPath1)"
         id="path289" />
    </g>
  </g>
  <ellipse
     style="fill:none;fill-opacity:1;stroke:#00ffff;stroke-width:2.5767591;stroke-miterlimit:4;stroke-dasharray:none;stroke-opacity:1"
     id="path1106"
     cx="65.587921"
     cy="32.901482"
     rx="64.82946"
     ry="31.712931" />
  <ellipse
     style="fill:none;fill-opacity:1;stroke:#ff00ff;stroke-width:1.87521911;stroke-miterlimit:4;stroke-dasharray:none;stroke-opacity:1"
     id="path1106-3"
     cx="153.11932"
     cy="48.82378"
     rx="46.677433"
     ry="24.528063" />
  <g
     id="g1164"
     transform="matrix(1.6446272,0,0,1.6446272,-33.23877,-50.977187)">
    <text
       id="text1140-7"
       y="78.849571"
       x="21.174065"
       style="font-style:normal;font-weight:normal;font-size:40px;line-height:1.25;font-family:sans-serif;letter-spacing:0px;word-spacing:0px;fill:#000000;fill-opacity:1;stroke:none"
       xml:space="preserve"><tspan
         style="font-style:normal;font-variant:normal;font-weight:bold;font-stretch:normal;font-size:8px;font-family:sans-serif;-inkscape-font-specification:'sans-serif Bold';fill:#000000"
         y="78.849571"
         x="21.174065"
         id="tspan1138-5"
         sodipodi:role="line">Phosphocholine</tspan></text>
    <text
       id="text1140"
       y="78.553444"
       x="20.635115"
       style="font-style:normal;font-weight:normal;font-size:40px;line-height:1.25;font-family:sans-serif;letter-spacing:0px;word-spacing:0px;fill:#000000;fill-opacity:1;stroke:none"
       xml:space="preserve"><tspan
         style="font-style:normal;font-variant:normal;font-weight:bold;font-stretch:normal;font-size:8px;font-family:sans-serif;-inkscape-font-specification:'sans-serif Bold';fill:#00ffff"
         y="78.553444"
         x="20.635115"
         id="tspan1138"
         sodipodi:role="line">Phosphocholine</tspan></text>
  </g>
  <g
     id="g1192"
     transform="matrix(1.9699383,0,0,1.9699383,42.573187,-207.54706)">
    <text
       id="text1168-3"
       y="113.48754"
       x="53.762955"
       style="font-style:normal;font-weight:normal;font-size:40px;line-height:1.25;font-family:sans-serif;letter-spacing:0px;word-spacing:0px;fill:#000000;fill-opacity:1;stroke:none"
       xml:space="preserve"><tspan
         style="font-style:normal;font-variant:normal;font-weight:bold;font-stretch:normal;font-size:8px;font-family:sans-serif;-inkscape-font-specification:'sans-serif Bold';fill:#000000"
         y="113.48754"
         x="53.762955"
         id="tspan1166-5"
         sodipodi:role="line">Glycerol</tspan></text>
    <text
       id="text1168"
       y="113.13645"
       x="53.220272"
       style="font-style:normal;font-weight:normal;font-size:40px;line-height:1.25;font-family:sans-serif;letter-spacing:0px;word-spacing:0px;fill:#000000;fill-opacity:1;stroke:none"
       xml:space="preserve"><tspan
         style="font-style:normal;font-variant:normal;font-weight:bold;font-stretch:normal;font-size:8px;font-family:sans-serif;-inkscape-font-specification:'sans-serif Bold';fill:#ff00ff"
         y="113.13645"
         x="53.220272"
         id="tspan1166"
         sodipodi:role="line">Glycerol</tspan></text>
  </g>
  <g
     id="g1220"
     transform="matrix(0,-2.3049068,2.3049068,0,-402.89915,435.92192)">
    <text
       id="text1196-6"
       y="232.7012"
       x="16.15274"
       style="font-style:normal;font-weight:normal;font-size:40px;line-height:1.25;font-family:sans-serif;letter-spacing:0px;word-spacing:0px;fill:#000000;fill-opacity:1;stroke:none;stroke-width:0.1;stroke-miterlimit:10;stroke-dasharray:none"
       xml:space="preserve"><tspan
         style="font-style:normal;font-variant:normal;font-weight:bold;font-stretch:normal;font-size:8px;font-family:sans-serif;-inkscape-font-specification:'sans-serif Bold';fill:#000000;stroke:#000000;stroke-width:0.1;stroke-miterlimit:10;stroke-dasharray:none"
         y="232.7012"
         x="16.15274"
         id="tspan1194-2"
         sodipodi:role="line">Polyunsaturated fatty acid</tspan></text>
    <text
       id="text1196"
       y="232.03073"
       x="15.698093"
       style="font-style:normal;font-weight:normal;font-size:40px;line-height:1.25;font-family:sans-serif;letter-spacing:0px;word-spacing:0px;fill:#000000;fill-opacity:1;stroke:none;stroke-width:0.1;stroke-miterlimit:10;stroke-dasharray:none"
       xml:space="preserve"><tspan
         style="font-style:normal;font-variant:normal;font-weight:bold;font-stretch:normal;font-size:8px;font-family:sans-serif;-inkscape-font-specification:'sans-serif Bold';fill:#ffffff;stroke:#000000;stroke-width:0.1;stroke-miterlimit:10;stroke-dasharray:none"
         y="232.03073"
         x="15.698093"
         id="tspan1194"
         sodipodi:role="line">Polyunsaturated fatty acid</tspan></text>
  </g>
  <g
     id="g1248"
     transform="matrix(0,-2.3791184,2.3791184,0,-476.75188,342.92768)">
    <text
       id="text1224-9"
       y="277.08716"
       x="-20.670259"
       style="font-style:normal;font-weight:normal;font-size:40px;line-height:1.25;font-family:sans-serif;letter-spacing:0px;word-spacing:0px;fill:#000000;fill-opacity:1;stroke:none;stroke-width:0.1;stroke-miterlimit:10;stroke-dasharray:none"
       xml:space="preserve"><tspan
         style="font-style:normal;font-variant:normal;font-weight:bold;font-stretch:normal;font-size:8px;font-family:sans-serif;-inkscape-font-specification:'sans-serif Bold';fill:#000000;stroke:#000000;stroke-width:0.1;stroke-miterlimit:10;stroke-dasharray:none"
         y="277.08716"
         x="-20.670259"
         id="tspan1222-1"
         sodipodi:role="line">Monounsaturated fatty acid</tspan></text>
    <text
       id="text1224"
       y="276.72394"
       x="-21.180681"
       style="font-style:normal;font-weight:normal;font-size:40px;line-height:1.25;font-family:sans-serif;letter-spacing:0px;word-spacing:0px;fill:#000000;fill-opacity:1;stroke:none;stroke-width:0.1;stroke-miterlimit:10;stroke-dasharray:none"
       xml:space="preserve"><tspan
         style="font-style:normal;font-variant:normal;font-weight:bold;font-stretch:normal;font-size:8px;font-family:sans-serif;-inkscape-font-specification:'sans-serif Bold';fill:#ffffff;stroke:#000000;stroke-width:0.1;stroke-miterlimit:10;stroke-dasharray:none"
         y="276.72394"
         x="-21.180681"
         id="tspan1222"
         sodipodi:role="line">Monounsaturated fatty acid</tspan></text>
  </g>
</svg>
